<?xml version="1.0" encoding="utf-8"?>
<!-- Generator: Adobe Illustrator 25.2.1, SVG Export Plug-In . SVG Version: 6.00 Build 0)  -->
<svg version="1.1" id="圖層_1" xmlns="http://www.w3.org/2000/svg" xmlns:xlink="http://www.w3.org/1999/xlink" x="0px" y="0px"
	 viewBox="0 0 20 20" style="enable-background:new 0 0 20 20;" xml:space="preserve">
<style type="text/css">
	.st0{fill-rule:evenodd;clip-rule:evenodd;fill:#020202;}
</style>
<path id="形狀_14" class="st0" d="M4.3,13.6c-1.2,0-2.2,1-2.2,2.3c0,1.3,1,2.3,2.2,2.3c1.2,0,2.2-1,2.2-2.3c0,0,0,0,0,0
	C6.5,14.6,5.6,13.6,4.3,13.6L4.3,13.6z M9.6,10.4c1.8,1.9,2.9,4.5,2.9,7.2c0,0.3-0.2,0.5-0.5,0.5l0,0H9.5c-0.3,0-0.5-0.2-0.5-0.5
	c0,0,0,0,0,0C9,14,6.2,11,2.6,11c-0.3,0-0.5-0.2-0.5-0.5c0,0,0,0,0,0V8c0-0.3,0.2-0.5,0.5-0.5c0,0,0,0,0,0C5.2,7.5,7.7,8.5,9.6,10.4
	L9.6,10.4L9.6,10.4z M2.1,4.9V2.4c0-0.3,0.2-0.5,0.5-0.5c0,0,0,0,0,0c8.4,0,15.2,7,15.2,15.7c0,0.3-0.2,0.5-0.5,0.5l0,0h-2.5
	c-0.3,0-0.5-0.2-0.5-0.5c0,0,0,0,0,0c0-6.7-5.3-12.2-11.8-12.2C2.4,5.4,2.1,5.2,2.1,4.9C2.1,4.9,2.1,4.9,2.1,4.9L2.1,4.9z"/>
</svg>
