<?xml version="1.0" encoding="utf-8"?>
<!-- Generator: Adobe Illustrator 25.2.1, SVG Export Plug-In . SVG Version: 6.00 Build 0)  -->
<svg version="1.1" id="圖層_1" xmlns="http://www.w3.org/2000/svg" xmlns:xlink="http://www.w3.org/1999/xlink" x="0px" y="0px"
	 viewBox="0 0 28.4 28.4" style="enable-background:new 0 0 28.4 28.4;" xml:space="preserve">
<style type="text/css">
	.st0{fill-rule:evenodd;clip-rule:evenodd;fill:#FFFFFF;}
</style>
<path class="st0" d="M22.3,25.9l-4.9-4.4c-1.5,0.8-3.3,1.3-5.1,1.3c-5.8,0-10.6-4.7-10.6-10.6c0-5.8,4.7-10.6,10.6-10.6
	s10.6,4.7,10.6,10.6c0,2.1-0.6,4.1-1.7,5.8l4.6,4.1c0.6,0.5,0.9,1.2,0.9,2c0,1.4-1.1,2.5-2.5,2.5C23.4,26.7,22.8,26.4,22.3,25.9
	L22.3,25.9z M5.1,12.3c0,4,3.2,7.2,7.2,7.2c4,0,7.2-3.2,7.2-7.2c0-4-3.2-7.2-7.2-7.2C8.3,5.1,5.1,8.3,5.1,12.3z"/>
</svg>
