<svg xmlns="http://www.w3.org/2000/svg" width="14.063" height="13.063" viewBox="0 0 14.063 13.063">
  <defs>
    <style>
      .cls-1 {
        fill: #003773;
        fill-rule: evenodd;
      }
    </style>
  </defs>
  <path id="形狀_26" data-name="形狀 26" class="cls-1" d="M463.592,179.031l-5.485,5.438v4.35a0.877,0.877,0,0,0,.878.871h3.29v-3.7a0.439,0.439,0,0,1,.439-0.435h1.756a0.438,0.438,0,0,1,.438.435v3.7h3.29a0.876,0.876,0,0,0,.878-0.87v-4.351l-5.484-5.438h0Zm0.467-2.2,6.358,6.3a0.646,0.646,0,0,1,.2.464,0.658,0.658,0,0,1-1.125.459l-5.9-5.845-5.895,5.845a0.659,0.659,0,0,1-1.126-.459,0.647,0.647,0,0,1,.2-0.464l6.357-6.3A0.66,0.66,0,0,1,464.059,176.832Z" transform="translate(-456.562 -176.625)"/>
</svg>
