<?xml version="1.0" encoding="utf-8"?>
<!-- Generator: Adobe Illustrator 25.2.3, SVG Export Plug-In . SVG Version: 6.00 Build 0)  -->
<svg version="1.1" id="圖層_1" xmlns="http://www.w3.org/2000/svg" xmlns:xlink="http://www.w3.org/1999/xlink" x="0px" y="0px"
	 viewBox="0 0 68.1 63.5" style="enable-background:new 0 0 68.1 63.5;" xml:space="preserve">
<style type="text/css">
	.st0{fill-rule:evenodd;clip-rule:evenodd;fill:#19D0FF;}
	.st1{fill-rule:evenodd;clip-rule:evenodd;fill:#2B2B2B;}
</style>
<path class="st0" d="M38.7,1.1l7.7,5.1c0,0-0.3,10.3-3.9,11.1c-1.9-0.1-5.3-0.7-5.3-0.7l-1.7,4.7h-8.6C26.9,21.3,31.8,2.9,38.7,1.1z
	"/>
<path class="st0" d="M38.9,63l7.7-5.1c0,0-0.3-10.3-3.9-11.1c-1.9,0.1-5.3,0.7-5.3,0.7l-1.7-4.7h-8.6C27.2,42.8,32,61.2,38.9,63z"/>
<path id="形狀_21" class="st1" d="M5,26.1v-4.4c0-0.6-0.5-1-1.1-1s-1,0.5-1,1v4.4c0,0.6,0.5,1,1.1,1S5,26.6,5,26.1z M49.8,20.6
	c-0.4-0.4-1.1-0.4-1.5,0s-0.4,1,0,1.4c5.5,5.5,5.5,14.4,0,19.9l0,0c-0.4,0.4-0.4,1.1,0,1.5l0,0c0.4,0.4,1.1,0.4,1.5,0l0,0
	C56.1,37.2,56.1,27,49.8,20.6L49.8,20.6L49.8,20.6z M54.6,15.8c-0.4-0.4-1.1-0.4-1.5,0c-0.4,0.4-0.4,1.1,0,1.5l0,0
	c8.2,8.1,8.2,21.3,0,29.5l0,0c-0.4,0.4-0.4,1.1,0,1.5c0.2,0.2,0.5,0.3,0.7,0.3c0.3,0,0.5-0.1,0.7-0.3C63.5,39.3,63.6,24.8,54.6,15.8
	L54.6,15.8L54.6,15.8z M59.4,11c-0.4-0.4-1.1-0.4-1.5,0s-0.4,1.1,0,1.5c10.8,10.8,10.8,28.2,0,39l0,0c-0.4,0.4-0.4,1.1,0.1,1.5
	c0.4,0.4,1,0.4,1.4,0C71,41.5,71,22.7,59.4,11C59.4,11.1,59.4,11.1,59.4,11L59.4,11z M41.5,18.8h0.2c0.3,0,0.7-0.1,0.9-0.3
	c2.6-2.8,4.4-7,5.1-11.8c0-0.3-0.1-0.6-0.3-0.9c-2.4-2.5-5.3-4.5-8.5-5.7c-0.3-0.1-0.7-0.1-1,0.1C33.8,3,28.2,8.1,26.1,20.6h-1.7
	c-0.6,0-1.1,0.5-1.1,1c0,0.6,0.5,1.1,1,1.1l0,0h12.1c0.8,0,1.5,0.3,2,0.9c0.5,0.5,0.8,1.3,0.8,2c-0.4,14-2.4,16.9-2.9,16.9h-0.7
	c0,0,0,0-0.1,0H22.7c-1.7,0-3.5-1.4-4.9-2.5c-1.3-1-2.4-1.9-3.5-1.9h-5V22.7h4c0.2,0,0.3,0,0.5,0s0.4,0,0.6,0c1.1,0,2.3-0.3,3.8-2.1
	c1-1.1,3.6-3.8,6.5-3.8H26c0.6,0,1-0.5,1-1.1s-0.5-1-1-1h-1.2c-3.7,0-6.9,3.2-8,4.6c-1.2,1.4-1.8,1.4-2.6,1.3c-0.2,0-0.4,0-0.7,0h-4
	v-1.9c0-0.6-0.5-1-1-1l0,0H1c-0.6,0-1,0.5-1,1s0.5,1,1,1l0,0h6.3v22.8H1c-0.6,0-1.1,0.5-1.1,1c0,0.6,0.5,1.1,1,1.1l0,0h7.3
	c0.6,0,1-0.5,1-1v-3.3h5c0.8,0.4,1.5,0.8,2.2,1.4c1.7,1.3,3.8,3,6.2,3h3.7c2.3,11.3,7.6,16,11.4,18.7c0.2,0.1,0.4,0.2,0.6,0.2
	c0.1,0,0.3,0,0.4-0.1c3.2-1.3,6.1-3.2,8.5-5.7c0.2-0.2,0.3-0.5,0.3-0.9c-0.6-4.8-2.4-9-5.1-11.8c-0.2-0.2-0.6-0.4-0.9-0.3h-0.2
	c-1.3,0.1-2.7,0.4-4,0.7c-0.1-0.3-0.2-0.6-0.3-0.9c1.4-0.4,3.8-2.8,4.3-18.9c0-2.8-2.2-5-4.9-5.1c0.3-1,0.7-1.9,1-2.6
	C38.9,18.4,40.2,18.6,41.5,18.8L41.5,18.8z M41.5,46.8c2.2,2.8,3.7,6.2,4.1,9.7c-2,2-4.3,3.6-6.9,4.7c-3.4-2.4-7.9-6.8-10-16.6H35
	c0.3,0.9,0.7,1.7,1.1,2.6c0.2,0.5,0.8,0.7,1.3,0.5C38.7,47.3,40.1,47,41.5,46.8L41.5,46.8z M36.1,16.3c-0.7,1.4-1.2,2.8-1.7,4.3
	h-6.2c1.9-11,6.7-15.8,10.3-18.4c2.6,1.1,4.9,2.7,6.9,4.7c-0.4,3.6-1.8,6.9-4.1,9.7c-1.4-0.1-2.7-0.4-4.1-0.9
	C36.9,15.6,36.3,15.8,36.1,16.3L36.1,16.3z"/>
</svg>
