<?xml version="1.0" encoding="utf-8"?>
<!-- Generator: Adobe Illustrator 25.2.3, SVG Export Plug-In . SVG Version: 6.00 Build 0)  -->
<svg version="1.1" id="圖層_1" xmlns="http://www.w3.org/2000/svg" xmlns:xlink="http://www.w3.org/1999/xlink" x="0px" y="0px"
	 viewBox="0 0 64.9 51.1" style="enable-background:new 0 0 64.9 51.1;" xml:space="preserve">
<style type="text/css">
	.st0{fill-rule:evenodd;clip-rule:evenodd;fill:#19D0FF;}
	.st1{fill-rule:evenodd;clip-rule:evenodd;fill:#2B2B2B;}
</style>
<rect x="17.4" class="st0" width="30.1" height="51.1"/>
<path id="形狀_18" class="st1" d="M38.3,41.8H26.7c-0.6,0-1.2,0.5-1.2,1.2l0,0v7c0,0.6,0.5,1.2,1.1,1.2s1.2-0.5,1.2-1.1
	c0,0,0,0,0-0.1v-5.8h9.3V50c0,0.6,0.5,1.2,1.1,1.2s1.2-0.5,1.2-1.1c0,0,0,0,0-0.1v-7C39.4,42.4,38.9,41.8,38.3,41.8z M42.9,34.9H22
	c-0.6,0-1.2,0.5-1.1,1.2c0,0.6,0.5,1.1,1.1,1.1h20.9c0.6,0,1.2-0.5,1.1-1.2C44,35.4,43.5,34.9,42.9,34.9L42.9,34.9z M42.9,27.9H22
	c-0.6,0-1.2,0.5-1.1,1.2c0,0.6,0.5,1.1,1.1,1.1h20.9c0.6,0,1.1-0.5,1.1-1.2C44,28.4,43.5,27.9,42.9,27.9L42.9,27.9z M5.8,30.2h7
	c0.6,0,1.2-0.5,1.2-1.1s-0.5-1.2-1.1-1.2l0,0h-7c-0.6,0-1.2,0.5-1.2,1.2S5.2,30.2,5.8,30.2L5.8,30.2z M5.8,23.2h7
	c0.6,0,1.2-0.5,1.2-1.1s-0.5-1.2-1.1-1.2l0,0h-7c-0.6,0-1.2,0.5-1.2,1.2S5.2,23.2,5.8,23.2L5.8,23.2z M5.8,37.2h7
	c0.6,0,1.2-0.5,1.2-1.1s-0.5-1.2-1.1-1.2l0,0h-7c-0.6,0-1.2,0.5-1.2,1.2S5.2,37.2,5.8,37.2L5.8,37.2z M5.8,44.2h7
	c0.6,0,1.2-0.5,1.2-1.2s-0.5-1.2-1.2-1.2h-7c-0.6,0-1.2,0.5-1.2,1.2C4.6,43.6,5.2,44.2,5.8,44.2L5.8,44.2z M52.2,30.2h7
	c0.6,0,1.2-0.5,1.2-1.1s-0.5-1.2-1.1-1.2l0,0h-7c-0.6,0-1.1,0.6-1.1,1.2C51.1,29.7,51.6,30.2,52.2,30.2L52.2,30.2z M52.2,23.2h7
	c0.6,0,1.2-0.5,1.2-1.1s-0.5-1.2-1.1-1.2l0,0h-7c-0.6,0-1.1,0.6-1.1,1.2C51.1,22.7,51.6,23.2,52.2,23.2L52.2,23.2z M52.2,37.2h7
	c0.6,0,1.2-0.5,1.2-1.1s-0.5-1.2-1.1-1.2l0,0h-7c-0.6,0-1.1,0.6-1.1,1.2C51.1,36.7,51.6,37.2,52.2,37.2L52.2,37.2z M52.2,44.2h7
	c0.6,0,1.2-0.5,1.2-1.2s-0.5-1.2-1.2-1.2l0,0h-7c-0.6,0-1.2,0.5-1.2,1.2C51,43.6,51.5,44.2,52.2,44.2L52.2,44.2z M42.9,20.9H22
	c-0.6,0-1.2,0.5-1.1,1.2c0,0.6,0.5,1.1,1.1,1.1h20.9c0.6,0,1.1-0.6,1.1-1.2S43.5,21,42.9,20.9L42.9,20.9z M42.9,13.9H22
	c-0.6,0-1.2,0.5-1.2,1.2s0.5,1.2,1.2,1.2h20.9c0.6,0,1.1-0.6,1.1-1.2S43.5,14,42.9,13.9L42.9,13.9z M42.9,7H22
	c-0.6,0-1.2,0.5-1.2,1.2s0.5,1.2,1.2,1.2h20.9c0.6,0,1.1-0.6,1.1-1.2C44,7.5,43.5,7,42.9,7L42.9,7z M63.8,13.9H48.7V1.2
	c0-0.6-0.5-1.2-1.2-1.2H17.4c-0.6,0-1.2,0.5-1.2,1.2V14h-15C0.6,14,0,14.5,0,15.2l0,0V50c0,0.6,0.5,1.2,1.2,1.2l0,0h16.2
	c0.6,0,1.2-0.5,1.2-1.2l0,0V2.3h27.8V50c0,0.6,0.5,1.2,1.2,1.2l0,0h16.2c0.6,0,1.2-0.5,1.2-1.2l0,0V15.1
	C64.9,14.5,64.4,14,63.8,13.9C63.8,14,63.8,14,63.8,13.9L63.8,13.9z M16.2,48.8H2.3V16.3h13.9L16.2,48.8L16.2,48.8z M62.6,48.8H48.7
	V16.3h13.9V48.8L62.6,48.8z"/>
</svg>
