<?xml version="1.0" encoding="utf-8"?>
<!-- Generator: Adobe Illustrator 25.2.3, SVG Export Plug-In . SVG Version: 6.00 Build 0)  -->
<svg version="1.1" id="圖層_1" xmlns="http://www.w3.org/2000/svg" xmlns:xlink="http://www.w3.org/1999/xlink" x="0px" y="0px"
	 viewBox="0 0 69.9 62.9" style="enable-background:new 0 0 69.9 62.9;" xml:space="preserve">
<style type="text/css">
	.st0{fill-rule:evenodd;clip-rule:evenodd;fill:#19D0FF;}
	.st1{fill-rule:evenodd;clip-rule:evenodd;fill:#2B2B2B;}
</style>
<path class="st0" d="M30.9,46.1l0.7-9.4c0,0-1.3,0.1-3.3,1.5l-1-12.7c0,0,0.2-4.6-3.4-2.6c-0.1-1-1.9-7.3-6.4-2.5
	c0,0-3.1-0.7-3.8,1.6c0.4,3,0,4.5,0,4.5S11.1,24,9,26.6c0.5,2.8,0,23.7,0,23.7s1.9,4.2,2.9,4.1c-0.3,1.5-0.1,2.1-0.1,2.1l10.5,0.6
	l0.7-1.5C23.2,55.6,28.9,50.5,30.9,46.1z"/>
<path class="st0" d="M54.3,32.7v-9.3c0,0-2-5.8-5-0.6c0.3,4.8,0,15.5,0,15.5s-1.6-2.4-4.2-1.8c0.2,2.7,0,9.2,0,9.2l6.7,9l2.5,0.8
	v1.7h10.5v-2.5c0,0,2.8-1.3,2.9-3.9c0.1-2.7,0-14.6,0-14.6s-2.1-2.4-3.9-1.3S54.3,32.7,54.3,32.7z"/>
<path id="形狀_22" class="st1" d="M40.9,44.7h-4.8c-0.6,0-1,0.4-1,1s0.4,1,1,1h4.8c0.6,0,1-0.4,1-1S41.4,44.7,40.9,44.7z
	 M63.8,7.7v24c0,0.5,0.4,1,1,1c0.5,0,1-0.4,1-1l0,0v-24c0-0.5-0.4-1-1-1C64.2,6.7,63.8,7.1,63.8,7.7L63.8,7.7z M8.2,45.7
	c0-0.5-0.4-1-1-1c-0.7,0-1.3-0.6-1.3-1.3V7.7c0-0.5-0.4-1-1-1s-1,0.4-1,1l0,0v35.7c0,1.8,1.4,3.3,3.3,3.3
	C7.7,46.7,8.2,46.2,8.2,45.7z M13,8.7H9.9c-0.6,0-1,0.4-1,1s0.4,1,1,1H13c0.6,0,1-0.4,1-1S13.5,8.7,13,8.7z M19.7,8.7h-3.1
	c-0.6,0-1,0.4-1,1s0.4,1,1,1h3.1c0.6,0,1-0.4,1-1C20.7,9.1,20.3,8.7,19.7,8.7L19.7,8.7z M26.4,8.7h-3.1c-0.6,0-1,0.4-1,1s0.4,1,1,1
	h3.1c0.6,0,1-0.4,1-1C27.4,9.1,27,8.7,26.4,8.7L26.4,8.7z M33.1,8.7H30c-0.6,0-1,0.4-1,1s0.4,1,1,1h3.1c0.6,0,1-0.4,1-1
	C34.1,9.1,33.7,8.7,33.1,8.7L33.1,8.7z M39.8,8.7h-3.1c-0.6,0-1,0.4-1,1s0.4,1,1,1h3.1c0.6,0,1-0.4,1-1C40.8,9.1,40.4,8.7,39.8,8.7
	L39.8,8.7z M46.6,8.7h-3.1c-0.6,0-1,0.4-1,1s0.4,1,1,1h3.1c0.6,0,1-0.4,1-1S47.1,8.7,46.6,8.7L46.6,8.7z M53.3,8.7h-3.1
	c-0.6,0-1,0.4-1,1s0.4,1,1,1h3.1c0.6,0,1-0.4,1-1S53.8,8.7,53.3,8.7L53.3,8.7z M60,8.7h-3.1c-0.6,0-1,0.4-1,1s0.4,1,1,1H60
	c0.6,0,1-0.4,1-1S60.6,8.7,60,8.7L60,8.7z M13,14.3H9.9c-0.5,0.1-1,0.5-0.9,1.1c0,0.5,0.4,0.8,0.9,0.9H13c0.5-0.1,0.9-0.5,0.9-1.1
	C13.8,14.8,13.5,14.4,13,14.3L13,14.3z M19.7,14.3h-3.1c-0.5,0.1-1,0.5-0.9,1.1c0,0.5,0.4,0.8,0.9,0.9h3.1c0.6,0,1-0.4,1-1
	S20.3,14.3,19.7,14.3L19.7,14.3z M26.4,14.3h-3.1c-0.5,0.1-1,0.5-0.9,1.1c0,0.5,0.4,0.8,0.9,0.9h3.1c0.6,0,1-0.4,1-1
	S27,14.3,26.4,14.3L26.4,14.3z M33.1,14.3H30c-0.5,0.1-1,0.5-0.9,1.1c0,0.5,0.4,0.8,0.9,0.9h3.1c0.6,0,1-0.4,1-1
	S33.7,14.3,33.1,14.3L33.1,14.3z M39.8,14.3h-3.1c-0.5,0.1-1,0.5-0.9,1.1c0,0.5,0.4,0.8,0.9,0.9h3.1c0.6,0,1-0.4,1-1
	S40.4,14.3,39.8,14.3L39.8,14.3z M46.6,14.3h-3.1c-0.5,0.1-1,0.5-0.9,1.1c0,0.5,0.4,0.8,0.9,0.9h3.1c0.6,0,1-0.4,1-1
	S47.1,14.3,46.6,14.3L46.6,14.3z M53.3,14.3h-3.1c-0.5,0.1-1,0.5-0.9,1.1c0,0.5,0.4,0.8,0.9,0.9h3.1c0.6,0,1-0.4,1-1
	S53.8,14.3,53.3,14.3L53.3,14.3z M60,14.3h-3.1c-0.5,0.1-1,0.5-0.9,1.1c0,0.5,0.4,0.8,0.9,0.9H60c0.6,0,1-0.4,1-1S60.6,14.3,60,14.3
	L60,14.3z M13,20H9.9C9.4,20,9,20.5,9,21.1c0,0.5,0.4,0.8,0.9,0.9H13c0.5-0.1,1-0.5,0.9-1.1C13.8,20.4,13.5,20,13,20L13,20z
	 M33.1,20H30c-0.5,0.1-1,0.5-0.9,1.1c0,0.5,0.4,0.8,0.9,0.9h3.1c0.6,0,1-0.4,1-1S33.7,20,33.1,20L33.1,20z M39.8,20h-3.1
	c-0.5,0.1-1,0.5-0.9,1.1c0,0.5,0.4,0.8,0.9,0.9h3.1c0.6,0,1-0.4,1-1C40.9,20.4,40.4,20,39.8,20L39.8,20z M46.6,20h-3.1
	c-0.5,0.1-1,0.5-0.9,1.1c0,0.5,0.4,0.8,0.9,0.9h3.1c0.6,0,1-0.4,1-1S47.1,20,46.6,20L46.6,20z M60,20h-3.1c-0.5,0.1-1,0.5-0.9,1.1
	c0,0.5,0.4,0.8,0.9,0.9H60c0.6,0,1-0.4,1-1S60.6,20,60,20L60,20z M46.6,27.6c0.6,0,1-0.4,1-1s-0.4-1-1-1H30.1c-0.6,0-1,0.4-1,1
	s0.4,1,1,1H46.6z M60,25.6h-3.1c-0.6,0-1,0.4-1,1s0.4,1,1,1H60c0.5-0.1,0.9-0.7,0.7-1.2C60.6,26,60.4,25.7,60,25.6L60,25.6z
	 M69.5,5.3c0.2-0.3,0.2-0.7,0-1C68.4,2.2,66.1,0,63.4,0H6.3c-2.8,0-5,2.2-6.2,4.3C-0.2,4.8,0,5.4,0.5,5.7C0.6,5.8,0.8,5.8,1,5.8
	h67.7C69.1,5.8,69.4,5.6,69.5,5.3L69.5,5.3z M2.9,3.8C3.7,2.8,5,2.1,6.3,2h57.1c1.3,0.1,2.6,0.8,3.4,1.8H2.9L2.9,3.8z M32.9,36.7
	L32.9,36.7L32.9,36.7c0-0.6-0.4-1-1-1h-1.1c-0.9,0-1.7,0.3-2.4,0.7v-0.2l0,0V25c0-1.7-1.4-3.2-3.1-3.2c-0.5,0-0.9,0.1-1.3,0.3v-0.9
	c0-1.7-1.4-3.2-3.1-3.2c-1.5,0-2.9,1.1-3.1,2.6c-0.4-0.2-0.9-0.3-1.3-0.3c-1.8,0-3.2,1.4-3.2,3.2v1.9c-0.4-0.2-0.8-0.3-1.3-0.3
	c-1.8,0-3.2,1.4-3.2,3.2l0,0v21.4c0,2,0.8,3.9,2.3,5.2v1.8H6.9c-0.5,0.1-1,0.5-0.9,1.1c0,0.5,0.4,0.8,0.9,0.9h19.8V62
	c0,0.5,0.4,1,1,1c0.5,0,1-0.4,1-1l0,0v-4.3c0-0.5-0.4-1-1-1h-3.8v-0.5c0.9-0.3,1.7-0.8,2.3-1.5l0.1-0.1l6.3-7.4
	c0.2-0.2,0.2-0.4,0.2-0.6L32.9,36.7L32.9,36.7z M30.9,40.8v5.3l-6,7.1c-0.6,0.6-1.3,1-2.2,1.2c-0.4,0.1-0.8,0.5-0.8,1v1.2H13v-2.2
	c0-0.3-0.1-0.6-0.4-0.8c-1.2-0.9-2-2.4-2-3.9V28.3c0-0.7,0.5-1.2,1.2-1.2s1.2,0.5,1.2,1.2v8c0,0.5,0.4,1,1,1l0,0l0,0
	c0.5,0,1-0.5,1-1V23.5c0-0.7,0.5-1.2,1.2-1.2s1.2,0.5,1.2,1.2v12.8c0,0.5,0.4,1,1,1l0,0l0,0l0,0c0.5,0,1-0.4,1-1l0,0V21.2
	c0-0.7,0.5-1.2,1.2-1.2s1.2,0.5,1.2,1.2l0,0v15.1c0,0.5,0.4,1,1,1l0,0l0,0c0.5,0,1-0.5,1-1V25c0-0.7,0.5-1.2,1.2-1.2
	s1.2,0.5,1.2,1.2v11.2l0,0v9.4c0,0.5,0.4,1,1,1c0.5,0,1-0.4,1-1l0.1-5.7c0-1.3,1-2.4,2.3-2.4l0,0h0.1L30.9,40.8L30.9,40.8z
	 M68.9,56.6H66v-1.8c1.5-1.3,2.4-3.2,2.4-5.2V39.3l-0.1-2.2c0-1.8-1.4-3.2-3.2-3.2c-0.6,0-1.2,0.1-1.7,0.3c-2.5-0.1-5-1-7-2.5
	c-0.4,0-0.8,0.1-1.2,0.2c0-3.9,0-8.5,0-8.5c0-1.8-1.4-3.2-3.2-3.2s-3.2,1.4-3.2,3.2l0,0v13c-0.7-0.5-1.5-0.7-2.4-0.7h-1.1
	c-0.5,0-1,0.4-1,0.9c0,0.1,0,0.2,0,0.2v9.6c0,0.2,0.1,0.5,0.2,0.6l6.4,7.5c0.7,0.6,1.5,1.1,2.3,1.5v0.5h-3.1c-0.5,0-1,0.4-1,1l0,0
	v4.3c0,0.5,0.4,1,1,1c0.5,0,1-0.4,1-1l0,0v-3.3h17.8c0.5-0.2,0.8-0.8,0.6-1.3C69.4,57,69.2,56.7,68.9,56.6L68.9,56.6z M54.4,54.4
	c-0.8-0.2-1.5-0.6-2.1-1.1l-6.1-7.1V41l0,0v-3.2h0.1c1.3,0,2.3,1.1,2.3,2.4v4.6l0.1,1.1c0,0.5,0.4,1,1,1l0,0c0.5,0,1-0.5,1-1V23.6
	c0-0.7,0.6-1.3,1.3-1.3s1.3,0.6,1.3,1.3c0,0,0,9.7,0,12.7c0,0.5,0.4,1,1,1c0.5,0,1-0.4,1-1l0,0v-1.2c0-0.7,0.5-1.2,1.2-1.2
	s1.2,0.5,1.2,1.2l0,0V36c0,0.5,0.4,1,1,1c0.5,0,1-0.4,1-1l0,0c0-0.7,0.5-1.2,1.2-1.2s1.2,0.5,1.2,1.2l0,0v0.5c0,0.5,0.4,1,1,1
	c0.5,0,1-0.4,1-1l0,0l0,0c0-0.2,0-0.6,1.2-0.6c0.7,0,1.2,0.6,1.2,1.2l0,0l0.1,2.2v10.3c0,1.5-0.7,3-2,3.9c-0.2,0.2-0.4,0.5-0.4,0.8
	v2.2h-8.9v-1.2C55.2,54.9,54.9,54.5,54.4,54.4L54.4,54.4z"/>
</svg>
