<?xml version="1.0" encoding="utf-8"?>
<!-- Generator: Adobe Illustrator 25.2.3, SVG Export Plug-In . SVG Version: 6.00 Build 0)  -->
<svg version="1.1" id="圖層_1" xmlns="http://www.w3.org/2000/svg" xmlns:xlink="http://www.w3.org/1999/xlink" x="0px" y="0px"
	 viewBox="0 0 65 65.9" style="enable-background:new 0 0 65 65.9;" xml:space="preserve">
<style type="text/css">
	.st0{fill-rule:evenodd;clip-rule:evenodd;fill:#19D0FF;}
	.st1{fill-rule:evenodd;clip-rule:evenodd;fill:#2B2B2B;}
</style>
<circle class="st0" cx="32.9" cy="6.1" r="4.8"/>
<circle class="st0" cx="12.9" cy="39.8" r="4.8"/>
<circle class="st0" cx="52.1" cy="39.8" r="4.8"/>
<path id="形狀_20" class="st1" d="M55.5,25.5c0.4-1.9-0.8-3.8-2.8-4.3c-0.6-0.1-1.3-0.1-1.9,0.1L47,22.5L43.7,16
	c-0.9-1.6-2.6-2.7-4.4-2.7H25.7c-1.9,0-3.6,1-4.4,2.7l-3.4,6.5l-3.8-1.2c-1.2-0.4-2.6-0.1-3.6,0.7c-1,0.9-1.4,2.2-1.1,3.4
	c0.3,1.3,1.2,2.3,2.4,2.7h0.1l4,1.3c1.6,0.5,3.2,0.4,4.7-0.2c0.9-0.4,1.7-0.9,2.3-1.6l0.9-0.9v5.2h-3c-0.6,0-1.1,0.5-1.1,1.1
	s0.5,1.1,1.1,1.1l0,0H44c0.6,0,1.1-0.5,1.1-1.1s-0.5-1.1-1.1-1.1h-3v-5.2l0.9,0.9c1.8,1.8,4.6,2.5,7,1.7l4.2-1.4
	C54.4,27.7,55.3,26.7,55.5,25.5z M53.4,25c-0.1,0.5-0.5,0.9-0.9,1l-4.1,1.3c-2.1,0.7-4.5-0.2-5.5-2.2l-1.5-2.8
	c-0.3-0.5-0.9-0.8-1.5-0.7c-0.6,0.1-1,0.7-1,1.3v9.2H26.1v-9.2c0-0.6-0.4-1.1-1-1.3c-0.6-0.1-1.2,0.1-1.5,0.7l-1.5,2.8
	c-1.1,2-3.4,3-5.6,2.2l-4-1.3c-0.4-0.2-0.7-0.5-0.8-1s0.1-1,0.4-1.3c0.4-0.3,0.8-0.4,1.3-0.3h0.1l4,1.3c0.2,0.1,0.4,0.1,0.6,0.1
	c0.7,0,1.4-0.4,1.8-1.1l3.5-6.7c0.5-0.9,1.4-1.5,2.4-1.5h13.5c1,0,1.9,0.6,2.4,1.5l3.5,6.7c0.4,0.8,1.4,1.3,2.3,1l3.7-1.2v-0.1h0.4
	c0.4-0.1,0.9,0,1.2,0.3C53.3,24,53.5,24.5,53.4,25L53.4,25z M0,55.7v8.1c0,1.2,1,2.1,2.1,2.1h21.5c1.1,0,2.1-0.9,2.1-2.1v-6.4h13.6
	v6.3c0,1.2,0.9,2.1,2,2.1l0,0h21.5c1.2,0,2.1-1,2.1-2.1v-8.1c0-2.2-0.9-4.4-2.4-6c-1.6-1.6-3.7-2.5-6-2.5h-8.7c-4.4,0-8,3.3-8.5,7.6
	v0.5H25.7l-0.1-1.1c-0.3-1.7-1.1-3.2-2.3-4.5c-1.6-1.6-3.7-2.5-6-2.5h-9C3.7,47.3,0,51.1,0,55.7L0,55.7z M41.5,55.7
	c0-3.5,2.8-6.3,6.3-6.3h8.7c3.4,0,6.2,2.8,6.2,6.2v0.1v8h-3.9v-7.3c0-0.5-0.4-0.8-0.8-0.8c-0.5,0-0.8,0.4-0.8,0.8v7.3H47.1v-7.3
	c0-0.5-0.4-0.8-0.8-0.8c-0.5,0-0.8,0.4-0.8,0.8v7.3h-3.9L41.5,55.7L41.5,55.7z M8.6,49.4h8.6c1.7,0,3.3,0.7,4.5,1.8
	c1,1,1.7,2.3,1.8,3.8c0,0.1,0,0.1,0,0.2c0,0.1,0,0.3,0,0.5v8h-3.9v-7.3c0-0.5-0.4-0.8-0.8-0.8c-0.5,0-0.8,0.4-0.8,0.8l0,0v7.3H7.8
	v-7.3c0-0.5-0.4-0.8-0.8-0.8S6.2,56,6.2,56.4v7.3h-4v-8C2.2,52.2,5.1,49.4,8.6,49.4L8.6,49.4z M32.5,0c-3.3,0-6,2.7-6,6.1
	c0,3.3,2.7,6,6.1,6c3.3,0,6-2.7,6-6.1C38.6,2.7,35.8,0,32.5,0z M32.5,9.9c-2.1,0-3.8-1.7-3.8-3.9s1.7-3.8,3.9-3.8
	c2.1,0,3.8,1.7,3.8,3.8C36.3,8.2,34.6,9.9,32.5,9.9z M12.9,33.7c-3.3,0-6,2.7-6,6.1c0,3.3,2.7,6,6.1,6c3.3,0,6-2.7,6-6
	C19,36.4,16.3,33.7,12.9,33.7z M12.9,43.6c-2.1,0-3.8-1.7-3.8-3.9s1.7-3.8,3.9-3.8c2.1,0,3.8,1.7,3.8,3.8
	C16.8,41.9,15,43.6,12.9,43.6L12.9,43.6z M52.1,33.7c-3.3,0-6,2.8-6,6.1s2.7,6,6.1,6c3.3,0,6-2.7,6-6C58.2,36.4,55.4,33.7,52.1,33.7
	L52.1,33.7z M52.1,43.6c-2.1,0-3.8-1.7-3.8-3.9s1.7-3.8,3.9-3.8c2.1,0,3.8,1.7,3.8,3.8C55.9,41.9,54.2,43.6,52.1,43.6L52.1,43.6z"/>
</svg>
