<?xml version="1.0" encoding="utf-8"?>
<!-- Generator: Adobe Illustrator 25.2.3, SVG Export Plug-In . SVG Version: 6.00 Build 0)  -->
<svg version="1.1" id="圖層_1" xmlns="http://www.w3.org/2000/svg" xmlns:xlink="http://www.w3.org/1999/xlink" x="0px" y="0px"
	 viewBox="0 0 65.6 60.8" style="enable-background:new 0 0 65.6 60.8;" xml:space="preserve">
<style type="text/css">
	.st0{fill-rule:evenodd;clip-rule:evenodd;fill:#19D0FF;}
	.st1{fill-rule:evenodd;clip-rule:evenodd;fill:#2B2B2B;}
</style>
<path class="st0" d="M17.6,22.1c-1.1-4.1-2.3-6.3-1-10.4S25.8,2,32.8,2.3C39.9,2.7,43.7,4.4,45.4,7c4.9,7.4,4.9,11.2,2.6,16.4
	c-4.3,10-16.4,22.7-16.4,22.7S19.1,27.6,17.6,22.1z"/>
<path id="形狀_19" class="st1" d="M32.8,9.3c-4.5,0-8.2,3.7-8.2,8.2s3.7,8.2,8.2,8.2S41,22,41,17.5S37.3,9.3,32.8,9.3z M32.8,23.4
	c-3.2,0-5.8-2.6-5.8-5.9s2.6-5.8,5.9-5.8c3.2,0,5.8,2.6,5.8,5.9C38.7,20.8,36,23.4,32.8,23.4z M65,18.8c-0.4-0.2-0.8-0.2-1.2,0.1
	l-13.5,9L48,26.6c1.4-2.8,2.3-5.9,2.4-9.1C50.4,7.8,42.5,0,32.8,0S15.3,7.9,15.2,17.6c0.2,3.2,1,6.3,2.4,9.1L15.2,28L1.7,19
	c-0.4-0.2-0.8-0.3-1.2-0.1C0.2,19,0,19.4,0,19.9v30.4c0,0.4,0.2,0.8,0.5,1l14.1,9.4c0.4,0.2,0.8,0.3,1.2,0.1l17-9.1l17,9.1
	c0.2,0.1,0.4,0.1,0.6,0.1c0.2,0,0.5-0.1,0.7-0.2l14.1-9.4c0.3-0.2,0.5-0.6,0.5-1V19.9C65.6,19.4,65.4,19,65,18.8z M14.1,57.5
	L2.3,49.7V22.1L14,29.9v27.6H14.1z M31.6,49.6l-15.2,8.1V29.9l2.3-1.2C23,36.8,30,44.3,31.6,46.1V49.6L31.6,49.6z M17.6,17.5
	c0-8.4,6.8-15.2,15.2-15.2S48,9.1,48,17.5c0,9.2-11.9,22.8-15.2,26.4C29.5,40.3,17.6,26.7,17.6,17.5z M49.2,57.7L34,49.6v-3.5
	c1.6-1.7,8.6-9.3,12.9-17.4l2.3,1.2V57.7L49.2,57.7z M63.3,49.7l-11.7,7.8V29.9l11.7-7.8V49.7z"/>
</svg>
